<svg xmlns="http://www.w3.org/2000/svg" xmlns:xlink="http://www.w3.org/1999/xlink" id="Ñëîé_1" data-name="Ñëîé 1" width="239.54" height="108.27" viewBox="0 0 239.54 108.27">
  <defs/>
  <defs>
    <linearGradient id="Áåçûìÿííûé_ãðàäèåíò_30" x1="117.49" x2="155.13" y1="11.12" y2="26.71" gradientUnits="userSpaceOnUse">
      <stop offset="0" stop-color="#fff68e"/>
      <stop offset=".14" stop-color="#fcf08a"/>
      <stop offset=".32" stop-color="#f3df7f"/>
      <stop offset=".53" stop-color="#e4c36c"/>
      <stop offset=".76" stop-color="#cf9c53"/>
      <stop offset="1" stop-color="#b56c33"/>
    </linearGradient>
    <linearGradient id="Áåçûìÿííûé_ãðàäèåíò_30-2" x1="167.97" x2="174.53" y1="45.02" y2="74.4" xlink:href="#Áåçûìÿííûé_ãðàäèåíò_30"/>
    <linearGradient id="Áåçûìÿííûé_ãðàäèåíò_30-3" x1="178.05" x2="182.8" y1="43.36" y2="64.62" xlink:href="#Áåçûìÿííûé_ãðàäèåíò_30"/>
    <linearGradient id="Áåçûìÿííûé_ãðàäèåíò_4" x1="174.3" x2="176.64" y1="57.06" y2="65.1" gradientUnits="userSpaceOnUse">
      <stop offset="0" stop-color="#fff"/>
      <stop offset=".15" stop-color="#fcfcfc"/>
      <stop offset=".28" stop-color="#f1f3f4"/>
      <stop offset=".41" stop-color="#e0e3e6"/>
      <stop offset=".52" stop-color="#c7cdd2"/>
      <stop offset=".64" stop-color="#a7b0b9"/>
      <stop offset=".75" stop-color="#808d99"/>
      <stop offset=".86" stop-color="#516474"/>
      <stop offset=".96" stop-color="#1d354a"/>
      <stop offset="1" stop-color="#062138"/>
    </linearGradient>
    <linearGradient id="Áåçûìÿííûé_ãðàäèåíò_30-4" x1="174.95" x2="175.72" y1="58.13" y2="62.1" xlink:href="#Áåçûìÿííûé_ãðàäèåíò_30"/>
    <linearGradient id="Áåçûìÿííûé_ãðàäèåíò_30-5" x1="169" x2="181.43" y1="36.84" y2="47.86" xlink:href="#Áåçûìÿííûé_ãðàäèåíò_30"/>
    <radialGradient id="Áåçûìÿííûé_ãðàäèåíò_27" cx="124.06" cy="4609.65" r="259.81" gradientTransform="matrix(1 0 0 .64 0 -2951.13)" gradientUnits="userSpaceOnUse">
      <stop offset="0" stop-color="#0e3254"/>
      <stop offset=".4" stop-color="#0d3051"/>
      <stop offset=".73" stop-color="#0a2a46"/>
      <stop offset="1" stop-color="#062138"/>
    </radialGradient>
    <style>
      .cls-2{fill:#0e3254}.cls-3{fill:#113d66}.cls-4{fill:#fff}.cls-4,.cls-7{opacity:.73}.cls-5{fill:#154b7d}.cls-7,.cls-8{fill:#f2d268}.cls-8{opacity:.82}
    </style>
  </defs>
  <path fill="url(#Áåçûìÿííûé_ãðàäèåíò_27)" d="M0 0h239.54v108.27H0z"/>
  <path d="M216 87.31a11 11 0 1112.38 9.49A11 11 0 01216 87.31zM177.4 87.55A11 11 0 11189.77 97a11 11 0 01-12.37-9.45z" class="cls-2"/>
  <circle cx="169.89" cy="90.23" r="11.03" class="cls-2" transform="rotate(-13.39 169.94990435 90.24974152)"/>
  <path d="M139.78 96.1c-.79-6 4.93-11.77 12.78-12.81s14.86 3 15.66 9.06-4.92 11.77-12.77 12.81-14.87-3.02-15.67-9.06z" class="cls-2"/>
  <circle cx="203.4" cy="93.19" r="9" class="cls-2" transform="rotate(-52.23 203.3829574 93.18725223)"/>
  <path d="M207.33 92.67a5.45 5.45 0 116.11 4.69 5.44 5.44 0 01-6.11-4.69z" class="cls-2"/>
  <circle cx="218.91" cy="94.09" r="3.77" class="cls-2" transform="rotate(-52.83 218.90821558 94.09319149)"/>
  <path d="M220.75 98.49a7.75 7.75 0 118.69 6.67 7.74 7.74 0 01-8.69-6.67z" class="cls-2"/>
  <path d="M239.54 91.93a7.75 7.75 0 10-1.42 15 8.16 8.16 0 001.42-.33z" class="cls-2"/>
  <circle cx="196.29" cy="100.03" r="3.15" class="cls-2" transform="rotate(-83 196.2951571 100.02839165)"/>
  <path d="M186.07 97.8a4.61 4.61 0 115.17 4 4.61 4.61 0 01-5.17-4z" class="cls-2"/>
  <path d="M174.23 99.78a7 7 0 117.84 6 7 7 0 01-7.84-6z" class="cls-2"/>
  <circle cx="175.99" cy="101.24" r="4.61" class="cls-2"/>
  <path d="M160.35 107.85h16.5a8.54 8.54 0 00.13-2.95 8.45 8.45 0 00-16.76 2.21c.03.25.08.5.13.74z" class="cls-2"/>
  <path d="M155 107.85h8.87a4.61 4.61 0 10-9-.66 3.67 3.67 0 00.13.66z" class="cls-2"/>
  <path d="M157.62 107.85a2.1 2.1 0 00-4 0z" class="cls-2"/>
  <path d="M150.75 107.85H159a6.7 6.7 0 10-8.21 0z" class="cls-2"/>
  <path d="M142.63 107.85h5.54a4.4 4.4 0 10-5.54 0z" class="cls-2"/>
  <path d="M137 107.85h7.27a7.33 7.33 0 10-7.27 0zM96.25 84.29a11 11 0 1110.89 11.17 11 11 0 01-10.89-11.17z" class="cls-2"/>
  <circle cx="69.07" cy="79.14" r="11.03" class="cls-2" transform="rotate(-45 69.07083038 79.1399253)"/>
  <path d="M39.21 80.43A11 11 0 1150.1 91.6a11 11 0 01-10.89-11.17z" class="cls-2"/>
  <path d="M19.6 82.06c.07-6.09 6.56-10.94 14.48-10.84s14.27 5.12 14.2 11.21-6.56 10.95-14.48 10.85-14.28-5.12-14.2-11.22zM74 88.19a9 9 0 118.89 9.12A9 9 0 0174 88.19z" class="cls-2"/>
  <path d="M86.93 88.35a5.45 5.45 0 115.38 5.52 5.45 5.45 0 01-5.38-5.52z" class="cls-2"/>
  <circle cx="98.2" cy="91.43" r="3.77" class="cls-2"/>
  <circle cx="107.13" cy="96.14" r="7.75" class="cls-2" transform="rotate(-10.9 107.16887221 96.16024652)"/>
  <circle cx="115.46" cy="99.17" r="7.75" class="cls-2" transform="rotate(-43.8 115.45976284 99.17817681)"/>
  <path d="M71.8 94a3.15 3.15 0 113.11 3.19A3.16 3.16 0 0171.8 94z" class="cls-2"/>
  <path d="M65.16 90.38a4.61 4.61 0 114.55 4.67 4.6 4.6 0 01-4.55-4.67z" class="cls-2"/>
  <path d="M53.16 90.65a7 7 0 116.9 7.07 7 7 0 01-6.9-7.07z" class="cls-2"/>
  <path d="M50.08 92.28A4.61 4.61 0 1154.63 97a4.6 4.6 0 01-4.55-4.72z" class="cls-2"/>
  <path d="M38.24 95.89a8.45 8.45 0 118.35 8.56 8.45 8.45 0 01-8.35-8.56z" class="cls-2"/>
  <path d="M32.89 95.2a4.61 4.61 0 114.55 4.67 4.6 4.6 0 01-4.55-4.67z" class="cls-2"/>
  <path d="M31.41 96.64a2.1 2.1 0 112.07 2.13 2.09 2.09 0 01-2.07-2.13z" class="cls-2"/>
  <circle cx="33.59" cy="90.61" r="6.7" class="cls-2" transform="rotate(-45 33.59040003 90.60640074)"/>
  <path d="M19.56 91.06a4.4 4.4 0 114.34 4.45 4.41 4.41 0 01-4.34-4.45z" class="cls-2"/>
  <path d="M12.29 87.41a7.33 7.33 0 117.23 7.42 7.33 7.33 0 01-7.23-7.42z" class="cls-2"/>
  <path d="M31.22 107.85A21.27 21.27 0 000 90.64v17.21zM99.18 107.85a21.25 21.25 0 00-31.78 0zM136.85 107.85a21.24 21.24 0 00-34.35 0z" class="cls-3"/>
  <path d="M175 107.85c-4.63-6.16-13.08-10.49-22.89-10.93-11-.49-20.67 4-25.45 10.93zM73.87 107.85a16.75 16.75 0 00.55-3.63 17.35 17.35 0 10-34.12 3.63z" class="cls-3"/>
  <path d="M48.08 107.85a10.5 10.5 0 10-19.6-5.69 10.47 10.47 0 001.37 5.69z" class="cls-3"/>
  <circle cx="27.94" cy="96.48" r="7.28" class="cls-3" transform="rotate(-42.84 27.94791261 96.48449192)"/>
  <path d="M11.7 71.93A14.87 14.87 0 000 76.78v20.14a14.94 14.94 0 1011.7-25z" class="cls-3"/>
  <path d="M0 66.35v28.27a14.93 14.93 0 0010.09-13.46A14.94 14.94 0 000 66.35zM79 93.13a6.07 6.07 0 11-5.79-6.34A6.08 6.08 0 0179 93.13z" class="cls-3"/>
  <path d="M78.2 107.85h8.9a8.88 8.88 0 10-8.9 0z" class="cls-3"/>
  <path d="M112.29 107.85a13.47 13.47 0 10-22.15 0z" class="cls-3"/>
  <circle cx="111.83" cy="97.43" r="8.89" class="cls-3" transform="rotate(-17.43 111.85828636 97.43636748)"/>
  <circle cx="127.46" cy="90.87" r="16.29" class="cls-3" transform="rotate(-46.17 127.44937114 90.8625077)"/>
  <circle cx="145.12" cy="92.87" r="8.89" class="cls-3" transform="rotate(-66.19 145.12329025 92.8705827)"/>
  <path d="M157 90.58a4.05 4.05 0 11-3.87-4.23 4.05 4.05 0 013.87 4.23z" class="cls-3"/>
  <circle cx="168.56" cy="87.8" r="8.89" class="cls-3"/>
  <path d="M176.15 75.68a4.38 4.38 0 11-4.15-4.57 4.38 4.38 0 014.15 4.57z" class="cls-3"/>
  <path d="M177.35 72.3a2.9 2.9 0 11-2.77-3 2.9 2.9 0 012.77 3zM182.75 76.34a2.91 2.91 0 11-2.77-3 2.91 2.91 0 012.77 3z" class="cls-3"/>
  <path d="M186.92 82.35a4.72 4.72 0 11-4.51-4.93 4.73 4.73 0 014.51 4.93z" class="cls-3"/>
  <path d="M195.66 85.54a6.52 6.52 0 11-6.22-6.81 6.52 6.52 0 016.22 6.81zM162.59 89.67a4 4 0 11-3.86-4.23 4 4 0 013.86 4.23z" class="cls-3"/>
  <path d="M163.93 107.85a12.76 12.76 0 001.35-5.2 12.92 12.92 0 10-24.46 5.2z" class="cls-3"/>
  <path d="M165.11 107.85h11.69a8.48 8.48 0 10-11.69 0z" class="cls-3"/>
  <path d="M193.19 107.85a14.13 14.13 0 00-28.17 0z" class="cls-3"/>
  <path d="M122.8 45.66a.22.22 0 01-.22.22.22.22 0 110-.44.22.22 0 01.22.22zM207.17 38.19A.23.23 0 11207 38a.22.22 0 01.17.19zM95.53 17.49a.22.22 0 01-.23.22.22.22 0 110-.44.22.22 0 01.23.22zM27.45 53.06a.23.23 0 11-.45 0 .22.22 0 01.22-.22.22.22 0 01.23.22zM142.91 42.44a.23.23 0 11-.45 0 .22.22 0 01.22-.22.22.22 0 01.23.22zM160.91 28a.22.22 0 01-.22.22.23.23 0 11.22-.22zM61.67 65.08a.22.22 0 11-.44 0 .22.22 0 01.44 0z" class="cls-4"/>
  <circle cx="89.31" cy="63.37" r=".22" class="cls-4"/>
  <path d="M24.66 107.85A15.11 15.11 0 000 95.92v11.93zM68.64 107.85a15.1 15.1 0 00-15.76 0zM92.68 107.85a15 15 0 00-12.1 0zM115.23 107.85a25 25 0 00-14.68 0z" class="cls-5"/>
  <path d="M55.46 107.85v-.19a12.34 12.34 0 10-24.46.19z" class="cls-5"/>
  <path d="M37.13 107.85a7.47 7.47 0 10-13.35 0z" class="cls-5"/>
  <path d="M28.13 100.16a5.18 5.18 0 11-4.49-5.78 5.18 5.18 0 014.49 5.78z" class="cls-5"/>
  <circle cx="11.56" cy="91.72" r="10.62" class="cls-5" transform="rotate(-26.39 11.5478642 91.71057574)"/>
  <path d="M2 75.76a11.43 11.43 0 00-2-.06v21.19a10.61 10.61 0 0011.22-9.26A10.62 10.62 0 002 75.76zM59.34 100.06a4.31 4.31 0 11-3.74-4.82 4.33 4.33 0 013.74 4.82z" class="cls-5"/>
  <path d="M67.32 107.85a6.74 6.74 0 00.51-1.81 6.32 6.32 0 00-12.54-1.58 6.25 6.25 0 00.51 3.39z" class="cls-5"/>
  <path d="M84.16 107.85v-.32a9.58 9.58 0 10-19 .32z" class="cls-5"/>
  <path d="M88 107.85a6.49 6.49 0 00.64-2.07 6.32 6.32 0 10-11.91 2.07z" class="cls-5"/>
  <path d="M103.35 107.85a11.58 11.58 0 10-19 0z" class="cls-5"/>
  <path d="M111 107.85a6.32 6.32 0 10-11-5 6.3 6.3 0 001.53 5z" class="cls-5"/>
  <path d="M114.75 102.72a2.88 2.88 0 11-2.5-3.22 2.87 2.87 0 012.5 3.22z" class="cls-5"/>
  <path d="M119.61 107.85a9.18 9.18 0 00-17.52 0z" class="cls-5"/>
  <path d="M128.91 107.85a6 6 0 00-9.74 0z" class="cls-5"/>
  <path d="M133.57 107.85a10 10 0 00-8.33 0z" class="cls-5"/>
  <path d="M135.05 107.85a15.05 15.05 0 00-17 0zM208.69 107.85a15.18 15.18 0 00-4.23-.49 15 15 0 00-3.38.49zM239.54 107.85v-.42a24.35 24.35 0 00-25.07.42zM170.49 107.85a12.33 12.33 0 00-21.72 0z" class="cls-5"/>
  <path d="M150.88 107.85a7.43 7.43 0 00-8.29 0z" class="cls-5"/>
  <path d="M143.17 107.85a5.16 5.16 0 00-9.14 0z" class="cls-5"/>
  <path d="M116.1 107.85h20a10.61 10.61 0 10-20 0z" class="cls-5"/>
  <path d="M106.77 107.85h15.54a10.61 10.61 0 10-15.54 0zM173.82 107.85a4.31 4.31 0 10-7.84-2.36 4.27 4.27 0 00.78 2.36z" class="cls-5"/>
  <path d="M183.51 107.85a6.32 6.32 0 00-11.85 0z" class="cls-5"/>
  <path d="M200.24 107.85a9.58 9.58 0 00-19 0z" class="cls-5"/>
  <path d="M191.94 107.85h12.39a6.64 6.64 0 00.12-1.42 6.32 6.32 0 10-12.51 1.42z" class="cls-5"/>
  <path d="M199.42 107.85h18.91a11.58 11.58 0 10-18.91 0z" class="cls-5"/>
  <path d="M220.22 107.85h2.57a6.32 6.32 0 10-2.57 0z" class="cls-5"/>
  <path d="M229.77 99.42a2.88 2.88 0 11-3-2.8 2.88 2.88 0 013 2.8z" class="cls-5"/>
  <path d="M236.3 107.85a2.8 2.8 0 000-.29 9.18 9.18 0 00-18.36.29z" class="cls-5"/>
  <path d="M234.38 107.85h5.16v-7.25a6 6 0 00-5.29 6.15 5.7 5.7 0 00.13 1.1z" class="cls-5"/>
  <path d="M239.54 107.85V104a10 10 0 00-2.55 3.87zM174.71 88.35a6.49 6.49 0 01-6.93-6.07 6.58 6.58 0 016-7 6.48 6.48 0 016.93 6.06 6.6 6.6 0 01-6 7.01z" class="cls-5"/>
  <path d="M176.46 91.1a4.27 4.27 0 01-4.57-4 4.35 4.35 0 014-4.66 4.28 4.28 0 014.57 4 4.34 4.34 0 01-4 4.66z" class="cls-5"/>
  <path d="M179.67 86.84a4.28 4.28 0 01-4.58-4 4.36 4.36 0 014-4.66 4.27 4.27 0 014.57 4 4.35 4.35 0 01-3.99 4.66z" class="cls-5"/>
  <path d="M181.12 88.11a2 2 0 01-2.12-1.83 2 2 0 011.82-2.12 2 2 0 012.11 1.84 2 2 0 01-1.81 2.11z" class="cls-5"/>
  <ellipse cx="176.32" cy="87.72" class="cls-5" rx="6.31" ry="6.22" transform="rotate(-78.96 176.30992552 87.72097555)"/>
  <path d="M136.75 107.71h12a7.3 7.3 0 001.43-5.66 7.57 7.57 0 00-8.66-6.2 7.4 7.4 0 00-4.81 11.86z" class="cls-5"/>
  <ellipse cx="150.17" cy="96.75" class="cls-5" rx="10.92" ry="11.07" transform="rotate(-83.87 150.1607992 96.74911987)"/>
  <path d="M185.89 107.71a15.85 15.85 0 00-.18-3.62 16.8 16.8 0 00-19.22-13.76 16.53 16.53 0 00-14.07 17.38z" class="cls-5"/>
  <path d="M172.89 107.71h17.05a10.77 10.77 0 002.39-8.66A11.1 11.1 0 00179.64 90a10.9 10.9 0 00-9.17 12.49 10.79 10.79 0 002.42 5.22z" class="cls-5"/>
  <ellipse cx="169.87" cy="93.53" class="cls-5" rx="10.92" ry="11.07" transform="rotate(-83.86 169.88082782 93.52719344)"/>
  <path d="M183.71 87.86a5 5 0 01-4.18 5.7 5.05 5.05 0 01-5.78-4.14 5 5 0 014.18-5.7 5.06 5.06 0 015.78 4.14z" class="cls-5"/>
  <path d="M169.66 107.71h28.27a15.6 15.6 0 001.73-10 16.11 16.11 0 00-18.44-13.2 15.85 15.85 0 00-13.33 18.15 15.6 15.6 0 001.77 5.05z" class="cls-5"/>
  <path fill="url(#Áåçûìÿííûé_ãðàäèåíò_30)" d="M135.56 12a5.81 5.81 0 107.2 9.13.14.14 0 01.22.17 6.86 6.86 0 11-7.53-9.54.14.14 0 01.11.24z"/>
  <circle cx="223.64" cy="18.85" r=".22" class="cls-7"/>
  <path d="M105.41 58.53a.22.22 0 01-.44 0 .22.22 0 11.44 0z" class="cls-7"/>
  <circle cx="111.29" cy="9.15" r=".22" class="cls-7"/>
  <path d="M11.73 36.17a.22.22 0 01-.23.22.22.22 0 01-.22-.22.23.23 0 11.45 0z" class="cls-7"/>
  <path d="M178.44 16.17h-.61a.11.11 0 00-.12.05l-.39.48a.14.14 0 01-.24-.06l-.14-.6a.14.14 0 00-.09-.09l-.57-.22a.14.14 0 010-.25l.53-.32a.13.13 0 00.06-.11v-.62a.14.14 0 01.23-.09l.47.39a.13.13 0 00.12 0l.6-.16a.14.14 0 01.16.19l-.23.57a.1.1 0 000 .12l.34.52a.14.14 0 01-.12.2zM100.28 56.46h-.62a.11.11 0 00-.11 0l-.39.48a.14.14 0 01-.24-.06l-.15-.59a.14.14 0 00-.08-.1l-.58-.19a.13.13 0 010-.24l.52-.33a.12.12 0 00.07-.11v-.61a.14.14 0 01.23-.1l.47.4a.11.11 0 00.12 0l.6-.16a.14.14 0 01.16.19l-.24.57a.15.15 0 000 .13l.33.51a.13.13 0 01-.09.21zM32.38 57.53l-.38-.48a.14.14 0 00-.12 0l-.62.05a.13.13 0 01-.12-.21l.33-.52a.15.15 0 000-.13l-.24-.57a.13.13 0 01.16-.18l.6.15a.13.13 0 00.12 0l.47-.4a.13.13 0 01.22.09v.62a.15.15 0 00.07.11l.52.32a.13.13 0 010 .24l-.57.23a.12.12 0 00-.08.09l-.14.6a.14.14 0 01-.22-.01zM17.74 30.45l-.62-.05a.18.18 0 00-.12.05l-.38.48a.14.14 0 01-.24-.05l-.15-.6a.16.16 0 00-.08-.1l-.58-.18a.14.14 0 010-.25l.52-.32a.19.19 0 00.07-.11v-.62a.14.14 0 01.22-.1l.47.4a.15.15 0 00.15 0l.59-.16a.14.14 0 01.17.18l-.24.57a.19.19 0 000 .13l.34.52a.14.14 0 01-.12.21zM213.54 74.44h-.61a.17.17 0 00-.12 0l-.39.48a.14.14 0 01-.24 0l-.15-.6a.16.16 0 00-.08-.1l-.58-.22a.13.13 0 010-.24l.53-.33a.14.14 0 00.06-.11v-.61a.14.14 0 01.23-.1l.47.4a.13.13 0 00.12 0l.6-.16a.13.13 0 01.16.18l-.23.57a.12.12 0 000 .13l.34.51a.15.15 0 01-.11.2zM134.42 43.35h-.61a.11.11 0 00-.12 0l-.39.48a.14.14 0 01-.24-.06l-.15-.6a.12.12 0 00-.08-.09l-.58-.22a.14.14 0 010-.25l.53-.32a.15.15 0 00.06-.11v-.62a.14.14 0 01.23-.09l.47.39a.13.13 0 00.12 0l.6-.16a.14.14 0 01.16.19l-.23.57a.1.1 0 000 .12l.33.52a.13.13 0 01-.1.25z" class="cls-8"/>
  <path d="M171.68 78.21s2.93-20.91 2.72-22.38 2.51 0 2.51 0 2.51 21.75 3.55 22.79-8.78-.41-8.78-.41z" class="cls-5"/>
  <path fill="url(#Áåçûìÿííûé_ãðàäèåíò_30-2)" d="M173.08 49.62H173c-8.11.47-8 5.08-4.59 11.82a.42.42 0 00.75 0c.31-1.32.32-2.58 1.07-3.5.4-.7 1.06-.6 1.87-.53l2.16.21z"/>
  <path fill="url(#Áåçûìÿííûé_ãðàäèåíò_30-3)" d="M178 49.62h.09c8.11.47 8 5.08 4.59 11.82a.42.42 0 01-.75 0c-.31-1.32-.32-2.58-1.07-3.5-.4-.7-1.06-.6-1.86-.53l-2.17.21z"/>
  <path fill="#ebeef2" d="M174.27 31.22c-6.78 6.79-6.68 17.22-1.9 30.12h6.33c4.25-13 4-23.33-2-30.06a1.69 1.69 0 00-2.43-.06z"/>
  <path fill="url(#Áåçûìÿííûé_ãðàäèåíò_4)" d="M178.24 62.05h-5.41a.5.5 0 01-.51-.31l-.13-.68c0-.05.05-.1.13-.1h6.34c.08 0 .15 0 .13.11l-.14.73a.4.4 0 01-.41.25z"/>
  <path fill="url(#Áåçûìÿííûé_ãðàäèåíò_30-4)" d="M178.42 61.68h-5.77c-.27 0-.5-.1-.54-.23l-.15-.52s.06-.08.14-.08h6.78c.08 0 .15 0 .14.08l-.16.56c-.03.11-.22.19-.44.19z"/>
  <path fill="url(#Áåçûìÿííûé_ãðàäèåíò_30-5)" d="M178.56 42.59a3.07 3.07 0 11-3.07-3.07 3.06 3.06 0 013.07 3.07z"/>
  <path fill="#003654" d="M177.67 42.59a2.18 2.18 0 11-2.18-2.18 2.17 2.17 0 012.18 2.18z"/>
  <path fill="#fff" d="M176.55 40.88l-2.09 3.4a2 2 0 112.09-3.4z" opacity=".2"/>
</svg>
