<svg xmlns="http://www.w3.org/2000/svg" viewBox="0 0 64 64">
  <circle cx="26" cy="32" r="1"/>
  <path d="M26 20c-6.617 0-12 5.383-12 12s5.383 12 12 12 12-5.383 12-12-5.383-12-12-12zm-9.286 8.281l1.857.742a8.027 8.027 0 00-.472 1.709l-1.976-.314c.118-.73.316-1.448.591-2.137zm-.694 4.349l1.996-.123c.037.591.14 1.179.306 1.746l-1.919.562a9.908 9.908 0 01-.383-2.185zm2.527 6.037a10.068 10.068 0 01-1.287-1.805l1.747-.974a8.072 8.072 0 001.03 1.445zm11.746-.96l-3.008-3.008A2.95 2.95 0 0126 35c-1.654 0-3-1.346-3-3 0-1.302.839-2.402 2-2.816V22h2v7.184c1.161.414 2 1.514 2 2.816 0 .462-.113.894-.301 1.285l3.008 3.008z"/>
  <path d="M60.399 48L53 42.081V46H26c-7.72 0-14-6.28-14-14s6.28-14 14-14 14 6.28 14 14c0 5.096-2.745 9.551-6.826 12h6.228a17.95 17.95 0 004.22-8.324l.126-.609L47 34.226v-4.447l-3.246-.821-.127-.614a17.838 17.838 0 00-2.583-6.212l-.344-.525 1.72-2.886-3.142-3.142-2.886 1.721-.523-.344a17.838 17.838 0 00-6.212-2.583l-.614-.127L28.222 11h-4.443l-.821 3.246-.614.127a17.838 17.838 0 00-6.212 2.583l-.524.344-2.886-1.721-3.142 3.143 1.72 2.886-.344.523a17.838 17.838 0 00-2.583 6.212l-.127.614L5 29.778v4.445l3.248.83.127.612C10.093 43.971 17.505 50 26 50h27v3.919z"/>
  <path d="M3 46v4h14.347a20.212 20.212 0 01-5.585-4z"/>
</svg>
