<svg xmlns="http://www.w3.org/2000/svg" viewBox="0 0 470 470">
  <path d="M206.921 268.284a7.474 7.474 0 005.303-2.197l34.285-34.285a7.5 7.5 0 000-10.606 7.5 7.5 0 00-10.606 0l-34.285 34.285a7.5 7.5 0 005.303 12.803z"/>
  <path d="M108.718 366.488a7.474 7.474 0 005.303-2.197l76.991-76.99a7.5 7.5 0 000-10.606 7.498 7.498 0 00-10.606 0l-76.991 76.99a7.5 7.5 0 000 10.606 7.472 7.472 0 005.303 2.197z"/>
  <path d="M265.795 329.686a7.474 7.474 0 005.303-2.197l95.687-95.687a7.5 7.5 0 000-10.606 7.5 7.5 0 00-10.606 0l-95.687 95.687a7.5 7.5 0 005.303 12.803z"/>
  <path d="M462.5 113.999H380v-17.5c0-15.164-12.336-27.5-27.5-27.5h-235c-15.164 0-27.5 12.336-27.5 27.5v17.5H7.5a7.5 7.5 0 00-7.5 7.5v206.648a7.5 7.5 0 007.5 7.5h22.96c3.694 31.269 30.053 57.348 61.938 59.727l74.013 5.522c15.312 1.147 32.817-7.358 39.872-19.352l12.483-21.223c3.795-6.451 9.712-10.151 16.234-10.151s12.439 3.7 16.234 10.151l12.483 21.223c6.63 11.27 22.492 19.456 37.08 19.455.936 0 1.87-.034 2.792-.103l74.013-5.522c31.886-2.379 58.245-28.458 61.938-59.727h22.96a7.5 7.5 0 007.5-7.5V121.499a7.5 7.5 0 00-7.5-7.5zM105 96.499c0-6.893 5.607-12.5 12.5-12.5h235c6.893 0 12.5 5.607 12.5 12.5v50c0 6.893-5.607 12.5-12.5 12.5h-235c-6.893 0-12.5-5.607-12.5-12.5v-50zm350 224.149h-15V196.499a7.5 7.5 0 00-7.5-7.5h-335a7.5 7.5 0 000 15H425v124.148c0 26.825-21.763 50.273-48.514 52.269l-74.013 5.522c-9.578.721-21.647-4.892-25.827-11.999l-12.483-21.223C257.7 341.729 246.798 335.17 235 335.17s-22.7 6.559-29.163 17.546l-12.483 21.223c-4.18 7.106-16.246 12.712-25.827 11.999l-74.013-5.522C66.763 378.421 45 354.973 45 328.148V203.999h22.5a7.5 7.5 0 000-15h-30a7.5 7.5 0 00-7.5 7.5v124.148H15V128.999h75v17.5c0 15.164 12.336 27.5 27.5 27.5h235c15.164 0 27.5-12.336 27.5-27.5v-17.5h75v191.649z"/>
  <path d="M162.5 143.999c12.407 0 22.5-10.093 22.5-22.5s-10.093-22.5-22.5-22.5-22.5 10.093-22.5 22.5 10.093 22.5 22.5 22.5zm0-30c4.136 0 7.5 3.364 7.5 7.5s-3.364 7.5-7.5 7.5-7.5-3.364-7.5-7.5 3.364-7.5 7.5-7.5z"/>
  <path d="M242.5 143.999c12.407 0 22.5-10.093 22.5-22.5s-10.093-22.5-22.5-22.5-22.5 10.093-22.5 22.5 10.093 22.5 22.5 22.5zm0-30c4.136 0 7.5 3.364 7.5 7.5s-3.364 7.5-7.5 7.5-7.5-3.364-7.5-7.5 3.364-7.5 7.5-7.5z"/>
  <circle cx="315" cy="121.499" r="7.5"/>
</svg>
