<svg xmlns="http://www.w3.org/2000/svg" viewBox="0 0 1236.85 906.5">
  <defs>
    <style>
      .cls-1{fill:#009ddb}
    </style>
  </defs>
  <g id="Layer_2" data-name="Layer 2">
    <g id="Layer_2-2" data-name="Layer 2">
      <path d="M537.07 0h128.06v128.06H537.07z" class="cls-1"/>
      <path d="M537.07 160.99h128.06v128.06H537.07z" class="cls-1"/>
      <path d="M537.07 321.99h128.06v128.06H537.07z" class="cls-1"/>
      <path d="M381.57 160.99h128.06v128.06H381.57z" class="cls-1"/>
      <path d="M381.57 321.99h128.06v128.06H381.57z" class="cls-1"/>
      <path d="M226.07 160.99h128.06v128.06H226.07z" class="cls-1"/>
      <path d="M226.07 321.99h128.06v128.06H226.07z" class="cls-1"/>
      <path d="M72.39 321.99h128.06v128.06H72.39z" class="cls-1"/>
      <path d="M692.58 321.99h128.06v128.06H692.58z" class="cls-1"/>
      <path d="M418.73 906.5C-52.93 906.5 2 491.21 2 491.21h787.38c132.8 0 176.7-42.08 176.7-42.08s-75-97 12.81-214C1077.68 291.8 1074 376 1074 376s100.62-32.94 162.83 23.78c-34.76 113.42-188.44 106.11-188.44 106.11S905.71 906.5 418.73 906.5z" class="cls-1"/>
    </g>
  </g>
</svg>
