<svg xmlns="http://www.w3.org/2000/svg" viewBox="0 0 64 64">
  <linearGradient id="a" x1="32" x2="32" y1="63" y2="1" gradientUnits="userSpaceOnUse">
    <stop offset="0" stop-color="#9f2fff"/>
    <stop offset="1" stop-color="#0bb1d3"/>
  </linearGradient>
  <path fill="url(#a)" d="M43 46c0-1.654-1.346-3-3-3s-3 1.346-3 3c0 1.302.839 2.402 2 2.816v2.369a2.996 2.996 0 00-2 2.816c0 1.654 1.346 3 3 3s3-1.346 3-3a2.996 2.996 0 00-2-2.816v-2.369A2.996 2.996 0 0043 46zm-3-1c.551 0 1 .449 1 1s-.449 1-1 1-1-.449-1-1 .449-1 1-1zm0 10c-.551 0-1-.449-1-1s.449-1 1-1 1 .449 1 1-.449 1-1 1zm14.816-44A2.996 2.996 0 0052 9c-1.654 0-3 1.346-3 3 0 1.302.839 2.402 2 2.816V16h-5.586l-2.715-2.715A2.95 2.95 0 0043 12c0-1.654-1.346-3-3-3s-3 1.346-3 3 1.346 3 3 3a2.95 2.95 0 001.285-.301L44.586 18H51v1.586L47.586 23h-.77A2.996 2.996 0 0044 21c-1.654 0-3 1.346-3 3 0 .462.113.894.301 1.285l-1.073 1.073a9.01 9.01 0 00-2.229-3.069 9.029 9.029 0 00-7.03-2.232c-3.195.357-5.92 2.455-7.192 5.304l-1.076-1.076c.186-.391.299-.823.299-1.285 0-1.654-1.346-3-3-3a2.996 2.996 0 00-2.816 2h-.77L13 19.586v-4.77A2.996 2.996 0 0015 12c0-.722-.266-1.375-.692-1.894L19.414 5h7.172L31 9.414v4.172L29.586 15h-1.77A2.996 2.996 0 0025 13c-1.654 0-3 1.346-3 3s1.346 3 3 3a2.996 2.996 0 002.816-2h2.598L33 14.414v-5L37.414 5h7.77A2.996 2.996 0 0048 7c1.654 0 3-1.346 3-3s-1.346-3-3-3a2.996 2.996 0 00-2.816 2h-8.598L32 7.586 27.414 3h-8.828l-6.054 6.054A3.008 3.008 0 0012 9a2.996 2.996 0 00-2.816 2H7.586L1 17.586v11.828l2.301 2.301C3.113 32.106 3 32.538 3 33s.113.894.301 1.285L1 36.586v8.828L6.586 51h2.598A2.997 2.997 0 0011 52.816v3.598L17.586 63h8.828L32 57.414 37.586 63h8.828L53 56.414v-3.598A2.997 2.997 0 0054.816 51h2.598L63 45.414v-8.828l-2.301-2.301c.188-.391.301-.823.301-1.285s-.113-.894-.301-1.285L63 29.414V17.586L56.414 11zM39 12c0-.551.449-1 1-1s1 .449 1 1-.449 1-1 1-1-.449-1-1zm-14 5c-.551 0-1-.449-1-1s.449-1 1-1 1 .449 1 1-.449 1-1 1zM48 3c.551 0 1 .449 1 1s-.449 1-1 1-1-.449-1-1 .449-1 1-1zm4 8c.551 0 1 .449 1 1s-.449 1-1 1-1-.449-1-1 .449-1 1-1zm-8 12c.551 0 1 .449 1 1s-.449 1-1 1-1-.449-1-1 .449-1 1-1zm-18.945 6.113c.387-3.162 2.967-5.713 6.135-6.067.275-.031.548-.046.819-.046 1.727 0 3.356.618 4.656 1.781A7.009 7.009 0 0139 30c0 1.9-.765 3.685-2.114 5H33v-2.184A2.996 2.996 0 0035 30c0-1.654-1.346-3-3-3s-3 1.346-3 3c0 1.302.839 2.402 2 2.816V35h-3.878a6.982 6.982 0 01-2.067-5.887zM32 49c-.551 0-1-.449-1-1s.449-1 1-1 1 .449 1 1-.449 1-1 1zm-3-8c-.551 0-1-.449-1-1v-3h8v3c0 .551-.449 1-1 1zm2-11c0-.551.449-1 1-1s1 .449 1 1-.449 1-1 1-1-.449-1-1zm-11-7c.551 0 1 .449 1 1s-.449 1-1 1-1-.449-1-1 .449-1 1-1zm-8-12c.551 0 1 .449 1 1s-.449 1-1 1-1-.449-1-1 .449-1 1-1zM6 34c-.551 0-1-.449-1-1s.449-1 1-1 1 .449 1 1-.449 1-1 1zm5 16c0-.551.449-1 1-1s1 .449 1 1-.449 1-1 1-1-.449-1-1zm14.586 11h-7.172L13 55.586v-2.77A2.996 2.996 0 0015 50c0-1.654-1.346-3-3-3a2.996 2.996 0 00-2.816 2h-1.77L3 44.586v-7.172l1.715-1.715c.391.188.823.301 1.285.301s.894-.113 1.285-.301L10.586 39h2.598A2.996 2.996 0 0016 41c1.654 0 3-1.346 3-3s-1.346-3-3-3a2.996 2.996 0 00-2.816 2h-1.77l-2.715-2.715A2.95 2.95 0 009 33c0-1.654-1.346-3-3-3a2.95 2.95 0 00-1.285.301L3 28.586V18.414L8.414 13h.77A2.997 2.997 0 0011 14.816v5.598L15.586 25h1.598A2.996 2.996 0 0020 27a2.95 2.95 0 001.285-.301l1.839 1.839c-.018.11-.042.219-.055.331-.364 2.971.727 5.863 2.931 7.833V40c0 1.654 1.346 3 3 3h2v2.184c-1.161.414-2 1.514-2 2.816s.839 2.402 2 2.816v4.77zM15 38c0-.551.449-1 1-1s1 .449 1 1-.449 1-1 1-1-.449-1-1zm37 13c-.551 0-1-.449-1-1s.449-1 1-1 1 .449 1 1-.449 1-1 1zm5-18c0-.551.449-1 1-1s1 .449 1 1-.449 1-1 1-1-.449-1-1zm4-4.414l-1.715 1.715A2.95 2.95 0 0058 30c-1.654 0-3 1.346-3 3 0 .462.113.894.301 1.285L52.586 37h-1.77A2.996 2.996 0 0048 35c-1.654 0-3 1.346-3 3s1.346 3 3 3a2.996 2.996 0 002.816-2h2.598l3.301-3.301c.391.188.823.301 1.285.301s.894-.113 1.285-.301L61 37.414v7.172L56.586 49h-1.77A2.996 2.996 0 0052 47c-1.654 0-3 1.346-3 3 0 1.302.839 2.402 2 2.816v2.77L45.586 61h-7.172L33 55.586v-4.77c1.161-.414 2-1.514 2-2.816s-.839-2.402-2-2.816V43h2c1.654 0 3-1.346 3-3v-3.297A8.953 8.953 0 0041 30c0-.491-.052-.976-.131-1.455l1.846-1.846A2.95 2.95 0 0044 27a2.996 2.996 0 002.816-2h1.598L53 20.414v-5.598A2.997 2.997 0 0054.816 13h.77L61 18.414zM49 38c0 .551-.449 1-1 1s-1-.449-1-1 .449-1 1-1 1 .449 1 1zm-25 5c-1.654 0-3 1.346-3 3 0 1.302.839 2.402 2 2.816v.77l-1.715 1.715A2.95 2.95 0 0020 51c-1.654 0-3 1.346-3 3s1.346 3 3 3 3-1.346 3-3a2.95 2.95 0 00-.301-1.285L25 50.414v-1.598A2.996 2.996 0 0027 46c0-1.654-1.346-3-3-3zm-4 12c-.551 0-1-.449-1-1s.449-1 1-1 1 .449 1 1-.449 1-1 1zm4-8c-.551 0-1-.449-1-1s.449-1 1-1 1 .449 1 1-.449 1-1 1z"/>
</svg>
