<svg xmlns="http://www.w3.org/2000/svg" xmlns:xlink="http://www.w3.org/1999/xlink" id="Design_1" data-name="Design 1" viewBox="0 0 445.06 211.36">
  <defs/>
  <defs>
    <linearGradient id="linear-gradient" x1="27.47" x2="79.98" y1="83.62" y2="83.62" gradientTransform="rotate(45 53.73 83.626)" gradientUnits="userSpaceOnUse">
      <stop offset=".2"/>
      <stop offset=".63" stop-color="#fff"/>
      <stop offset="1" stop-color="#fff"/>
    </linearGradient>
    <linearGradient id="linear-gradient-2" x1="151.84" x2="203.74" y1="216.4" y2="216.4" gradientTransform="rotate(45 177.774 216.376)" gradientUnits="userSpaceOnUse">
      <stop offset="0"/>
      <stop offset=".52" stop-color="#fff"/>
      <stop offset="1" stop-color="#fff"/>
    </linearGradient>
    <linearGradient id="linear-gradient-3" x1="381.75" x2="433.66" y1="190.74" y2="190.74" gradientTransform="rotate(45 407.674 190.714)" xlink:href="#linear-gradient-2"/>
    <linearGradient id="linear-gradient-4" x1="45.13" x2="73.66" y1="246.42" y2="246.42" gradientTransform="rotate(45 59.39 246.42)" xlink:href="#linear-gradient-2"/>
    <linearGradient id="linear-gradient-5" x1="434.01" x2="472.53" y1="68.58" y2="68.58" gradientTransform="rotate(45 453.23 68.564)" xlink:href="#linear-gradient-2"/>
    <linearGradient id="linear-gradient-6" x1="27.47" x2="79.98" y1="83.62" y2="83.62" gradientTransform="rotate(45 53.73 83.626)" gradientUnits="userSpaceOnUse">
      <stop offset=".2" stop-color="#b70090"/>
      <stop offset=".63" stop-color="#f60067"/>
      <stop offset=".71" stop-color="#f73f6a"/>
      <stop offset=".82" stop-color="#f88d6d"/>
      <stop offset=".9" stop-color="#f8c76f"/>
      <stop offset=".97" stop-color="#f9eb70"/>
      <stop offset="1" stop-color="#f9f871"/>
    </linearGradient>
    <linearGradient id="linear-gradient-7" x1="151.84" x2="203.74" y1="216.4" y2="216.4" gradientTransform="rotate(45 177.774 216.376)" gradientUnits="userSpaceOnUse">
      <stop offset="0" stop-color="#b70090"/>
      <stop offset=".52" stop-color="#f60067"/>
      <stop offset=".62" stop-color="#f73f6a"/>
      <stop offset=".76" stop-color="#f88d6d"/>
      <stop offset=".87" stop-color="#f8c76f"/>
      <stop offset=".96" stop-color="#f9eb70"/>
      <stop offset="1" stop-color="#f9f871"/>
    </linearGradient>
    <linearGradient id="linear-gradient-8" x1="381.75" x2="433.66" y1="190.74" y2="190.74" gradientTransform="rotate(45 407.674 190.714)" xlink:href="#linear-gradient-7"/>
    <linearGradient id="linear-gradient-9" x1="45.13" x2="73.66" y1="246.42" y2="246.42" gradientTransform="rotate(45 59.39 246.42)" xlink:href="#linear-gradient-7"/>
    <linearGradient id="linear-gradient-10" x1="434.01" x2="472.53" y1="68.58" y2="68.58" gradientTransform="rotate(45 453.23 68.564)" xlink:href="#linear-gradient-7"/>
    <filter id="luminosity-noclip" width="52.51" height="32766" x="27.47" y="-8347" color-interpolation-filters="sRGB" filterUnits="userSpaceOnUse">
      <feFlood flood-color="#fff" result="bg"/>
      <feBlend in="SourceGraphic" in2="bg"/>
    </filter>
    <filter id="luminosity-noclip-2" width="51.91" height="32766" x="151.84" y="-8347" color-interpolation-filters="sRGB" filterUnits="userSpaceOnUse">
      <feFlood flood-color="#fff" result="bg"/>
      <feBlend in="SourceGraphic" in2="bg"/>
    </filter>
    <filter id="luminosity-noclip-3" width="51.91" height="32766" x="381.75" y="-8347" color-interpolation-filters="sRGB" filterUnits="userSpaceOnUse">
      <feFlood flood-color="#fff" result="bg"/>
      <feBlend in="SourceGraphic" in2="bg"/>
    </filter>
    <filter id="luminosity-noclip-4" width="28.52" height="32766" x="45.13" y="-8347" color-interpolation-filters="sRGB" filterUnits="userSpaceOnUse">
      <feFlood flood-color="#fff" result="bg"/>
      <feBlend in="SourceGraphic" in2="bg"/>
    </filter>
    <filter id="luminosity-noclip-5" width="38.52" height="32766" x="434.01" y="-8347" color-interpolation-filters="sRGB" filterUnits="userSpaceOnUse">
      <feFlood flood-color="#fff" result="bg"/>
      <feBlend in="SourceGraphic" in2="bg"/>
    </filter>
    <filter id="luminosity-noclip-6" width="52.51" height="52.51" x="27.47" y="57.37" color-interpolation-filters="sRGB" filterUnits="userSpaceOnUse">
      <feFlood flood-color="#fff" result="bg"/>
      <feBlend in="SourceGraphic" in2="bg"/>
    </filter>
    <filter id="luminosity-noclip-7" width="51.91" height="51.91" x="151.84" y="190.45" color-interpolation-filters="sRGB" filterUnits="userSpaceOnUse">
      <feFlood flood-color="#fff" result="bg"/>
      <feBlend in="SourceGraphic" in2="bg"/>
    </filter>
    <filter id="luminosity-noclip-8" width="51.91" height="51.91" x="381.75" y="164.79" color-interpolation-filters="sRGB" filterUnits="userSpaceOnUse">
      <feFlood flood-color="#fff" result="bg"/>
      <feBlend in="SourceGraphic" in2="bg"/>
    </filter>
    <filter id="luminosity-noclip-9" width="28.52" height="28.52" x="45.13" y="232.16" color-interpolation-filters="sRGB" filterUnits="userSpaceOnUse">
      <feFlood flood-color="#fff" result="bg"/>
      <feBlend in="SourceGraphic" in2="bg"/>
    </filter>
    <filter id="luminosity-noclip-10" width="38.52" height="38.52" x="434.01" y="49.32" color-interpolation-filters="sRGB" filterUnits="userSpaceOnUse">
      <feFlood flood-color="#fff" result="bg"/>
      <feBlend in="SourceGraphic" in2="bg"/>
    </filter>
    <mask id="mask-6" width="52.51" height="52.51" x="0" y="8.05" maskUnits="userSpaceOnUse">
      <g filter="url(#luminosity-noclip-6)">
        <g mask="url(#mask)" transform="translate(-27.47 -49.32)">
          <path transform="rotate(-45 53.737 83.621)" style="mix-blend-mode:multiply" fill="url(#linear-gradient)" d="M17.1 83.12h73.25v1H17.1z"/>
        </g>
      </g>
    </mask>
    <mask id="mask-7" width="51.91" height="51.91" x="124.36" y="141.13" maskUnits="userSpaceOnUse">
      <g filter="url(#luminosity-noclip-7)">
        <g mask="url(#mask-2)" transform="translate(-27.47 -49.32)">
          <path transform="rotate(-45 177.765 216.397)" style="mix-blend-mode:multiply" fill="url(#linear-gradient-2)" d="M141.59 215.9H214v1h-72.41z"/>
        </g>
      </g>
    </mask>
    <mask id="mask-8" width="51.91" height="51.91" x="354.28" y="115.47" maskUnits="userSpaceOnUse">
      <g filter="url(#luminosity-noclip-8)">
        <g mask="url(#mask-3)" transform="translate(-27.47 -49.32)">
          <path transform="rotate(-45 407.667 190.739)" style="mix-blend-mode:multiply" fill="url(#linear-gradient-3)" d="M371.5 190.24h72.41v1H371.5z"/>
        </g>
      </g>
    </mask>
    <mask id="mask-9" width="28.52" height="28.52" x="17.66" y="182.84" maskUnits="userSpaceOnUse">
      <g filter="url(#luminosity-noclip-9)">
        <g mask="url(#mask-4)" transform="translate(-27.47 -49.32)">
          <path transform="rotate(-45 59.39 246.42)" style="mix-blend-mode:multiply" fill="url(#linear-gradient-4)" d="M39.73 245.92h39.34v1H39.73z"/>
        </g>
      </g>
    </mask>
    <mask id="mask-10" width="38.52" height="38.52" x="406.54" y="0" maskUnits="userSpaceOnUse">
      <g filter="url(#luminosity-noclip-10)">
        <g mask="url(#mask-5)" transform="translate(-27.47 -49.32)">
          <path transform="rotate(-45 453.23 68.586)" style="mix-blend-mode:multiply" fill="url(#linear-gradient-5)" d="M426.53 68.08h53.48v1h-53.48z"/>
        </g>
      </g>
    </mask>
    <style>
      .cls-11{fill:#9a9a9a}
    </style>
  </defs>
  <g id="Design_1-2" data-name="Design 1">
    <path d="M27.82 109.52l51.8-51.8z" class="cls-11" transform="translate(-27.47 -49.32)"/>
    <g mask="url(#mask-6)">
      <path fill="url(#linear-gradient-6)" d="M17.1 83.12h73.25v1H17.1z" transform="rotate(-45 -19.537 92.133)"/>
    </g>
    <path d="M152.19 242l51.2-51.2z" class="cls-11" transform="translate(-27.47 -49.32)"/>
    <g mask="url(#mask-7)">
      <path fill="url(#linear-gradient-7)" d="M141.59 215.9H214v1h-72.41z" transform="rotate(-45 104.495 224.897)"/>
    </g>
    <path d="M382.11 216.34l51.19-51.2z" class="cls-11" transform="translate(-27.47 -49.32)"/>
    <g mask="url(#mask-8)">
      <path fill="url(#linear-gradient-8)" d="M371.5 190.24h72.41v1H371.5z" transform="rotate(-45 334.397 199.238)"/>
    </g>
    <path d="M45.49 260.33l27.81-27.82z" class="cls-11" transform="translate(-27.47 -49.32)"/>
    <g mask="url(#mask-9)">
      <path fill="url(#linear-gradient-9)" d="M39.73 245.92h39.34v1H39.73z" transform="rotate(-45 -13.88 254.919)"/>
    </g>
    <path d="M434.36 87.49l37.82-37.82z" class="cls-11" transform="translate(-27.47 -49.32)"/>
    <g mask="url(#mask-10)">
      <path fill="url(#linear-gradient-10)" d="M426.53 68.08h53.48v1h-53.48z" transform="rotate(-45 379.955 77.098)"/>
    </g>
  </g>
</svg>
